<svg height="512" viewBox="0 0 60 60" width="512" xmlns="http://www.w3.org/2000/svg"><g id="Page-1" fill="none" fill-rule="evenodd"><g id="015---Brake-Disc" fill="rgb(255,255,255)" fill-rule="nonzero"><path id="Shape" d="m28 60c15.0661612-.0183528 27.42242-11.9439644 27.975-27h1.011c.8317093.0002232 1.6265178-.3433596 2.1961638-.949366s.8634558-1.4205281.8118362-2.250634c-1.1270887-15.9646395-13.8293605-28.66691134-29.794-29.794-.8298793-.05072399-1.643888.24338752-2.2496895.81284093s-.9496539 1.36373126-.9503105 2.19515907v1.011c-15.1893752.63557839-27.09648999 13.2754218-26.82493588 28.4756632s12.62255118 27.4067108 27.82493588 27.4993368zm1-56.986c.0010924-.55839406.4526116-1.01125306 1.011-1.014h.06c14.9540578 1.07702303 26.8492996 12.9701352 27.929 27.924.019298.2787027-.0788691.5527712-.2707302.75584s-.4599212.316621-.7392698.31316h-7.239c-.9813724-.0060371-1.8133751-.723237-1.964-1.693-1.291667-8.8515659-8.237332-15.8073931-17.087-17.112-.9770317-.1430504-1.7009793-.9815521-1.7-1.969zm-2 3.011v4.194c.0041217 1.9834893 1.4611784 3.6643812 3.424 3.95 7.9720353 1.179845 14.2258588 7.449928 15.385 15.425.2980047 1.9475045 1.9678567 3.3892254 3.938 3.4h4.228c-.535877 14.091852-12.2077783 25.1875567-26.308697 25.0099384-14.1009188-.1776183-25.48963328-11.5637996-25.67038836-25.6646785-.18075509-14.1008789 10.91235286-25.77524817 25.00408536-26.3142599z"/><path id="Shape" d="m28 35c1.6568542 0 3-1.3431458 3-3s-1.3431458-3-3-3-3 1.3431458-3 3 1.3431458 3 3 3zm0-4c.5522847 0 1 .4477153 1 1s-.4477153 1-1 1-1-.4477153-1-1 .4477153-1 1-1z"/><path id="Shape" d="m28 39c3.8659932 0 7-3.1340068 7-7s-3.1340068-7-7-7-7 3.1340068-7 7c.0044086 3.8641657 3.1358343 6.9955914 7 7zm0-12c2.7614237 0 5 2.2385763 5 5s-2.2385763 5-5 5-5-2.2385763-5-5c.0033061-2.7600532 2.2399468-4.9966939 5-5z"/><path id="Shape" d="m28 47c8.2842712 0 15-6.7157288 15-15s-6.7157288-15-15-15-15 6.7157288-15 15c.0093685 8.2803876 6.7196124 14.9906315 15 15zm0-28c7.1797017 0 13 5.8202983 13 13s-5.8202983 13-13 13-13-5.8202983-13-13c.008266-7.1762751 5.8237249-12.991734 13-13z"/><circle id="Oval" cx="18" cy="32" r="1"/><path id="Shape" d="m25.219 40.56c-.3846691-.1250122-.8067666-.0059892-1.0694603.3015664s-.3142476.7430725-.1306212 1.1034608c.1836265.3603883.5662691.5746718.9694944.5429258.4032252-.031746.7476203-.3032691.8725871-.687953.1706208-.52522-.1168001-1.0893172-.642-1.26z"/><path id="Shape" d="m36.9 38.466c.3235293-.4468916.2240071-1.0713727-.2224072-1.3955601-.4464144-.3241874-1.0710415-.2255856-1.3958863.2203506-.3248449.4459362-.2271635 1.0707079.2182935 1.3962095.2147576.1569263.4831846.2218299.7459137.1803562.2627292-.0414736.4981109-.185907.6540863-.4013562z"/><path id="Shape" d="m36.678 26.931c.445457-.3255016.5431384-.9502733.2182935-1.3962095-.3248448-.4459362-.9494719-.544538-1.3958863-.2203506-.4464143.3241874-.5459365.9486685-.2224072 1.3955601.1559754.2154492.3913571.3598826.6540863.4013562.2627291.0414737.5311561-.0234299.7459137-.1803562z"/><path id="Shape" d="m25.219 23.44c.3846839-.1249668.656207-.4693619.687953-.8725871.031746-.4032253-.1825375-.7858679-.5429258-.9694944-.3603883-.1836264-.7959052-.1320725-1.1034608.1306212s-.4265786.6847912-.3015664 1.0694603c.1706828.5251999.73478.8126208 1.26.642z"/><circle id="Oval" cx="51" cy="28" r="1"/><path id="Shape" d="m23.165 48.947-3.452 3.618c-.3813526.399578-.366578 1.0326474.033 1.414s1.0326474.366578 1.414-.033l3.452-3.618c.2466919-.2584817.3367463-.6289371.2362406-.9718194-.1005058-.3428823-.3763024-.6060994-.7235-.6905-.3471977-.0844006-.7130487.0228377-.9597406.2813194z"/><path id="Shape" d="m33.494 48.359c-.2577944-.0626576-.5299217-.0203068-.7564823.1177301s-.3889839.3604455-.4515177.6182699l-1.18 4.859c-.1298483.5365111.1995835 1.0767614.736 1.207.077526.0191649.1571423.028571.237.028.4607241-.0008078.8612697-.3162891.97-.764l1.18-4.859c.1299075-.5362013-.1989893-1.0763081-.735-1.207z"/><path id="Shape" d="m40.938 43.42c-.2546506.0744608-.4692733.247066-.5966215.4798187-.1273481.2327527-.1569822.5065725-.0823785.7611813l1.408 4.8c.0912788.3534994.367952.6291587.7217842.719139s.7285798-.0200212.9776404-.2869716c.2490605-.2669504.3328445-.6484164.2185754-.9951674l-1.407-4.8c-.1555079-.5293867-.7104026-.8327888-1.24-.678z"/><path id="Shape" d="m48.684 39.294c.2568406.2555423.6318136.3521725.9801699.2525888.3483562-.0995836.6156004-.3798027.6985694-.7324854.082969-.3526828-.0313165-.7226571-.2987393-.9671034l-3.618-3.447c-.399578-.3813526-1.0326474-.366578-1.414.033s-.366578 1.0326474.033 1.414z"/><path id="Shape" d="m22.506 15.641c.0775372.0191035.1571458.0285088.237.028.4610975-.0003473.8621811-.315927.971-.764l1.18-4.859c.1133874-.52978126-.2157384-1.05350507-.7422686-1.18114054s-1.0589407.18724451-1.2007314.71014054l-1.18 4.859c-.1299075.5362013.1989893 1.0763081.735 1.207z"/><path id="Shape" d="m13.822 19.9c.0947916.349396.3710222.6202749.7222057.7082135.3511834.0879386.7224721-.0207973.970735-.2842903s.3347265-.6405908.2260593-.9859232l-1.408-4.8c-.0912788-.3534994-.367952-.6291587-.7217842-.719139s-.7285798.0200212-.9776404.2869716c-.2490605.2669504-.3328445.6484164-.2185754.9951674z"/><path id="Shape" d="m9.672 28.612c.25848165.2466919.6289371.3367463.9718194.2362405.3428823-.1005057.6060994-.3763023.6905-.7235.0844006-.3471976-.0228377-.7130486-.2813194-.9597405l-3.618-3.452c-.39957802-.3813526-1.03264738-.366578-1.414.033s-.36657802 1.0326474.033 1.414z"/><path id="Shape" d="m10.67 38.258c.5065211.0000097.9330561-.3787065.9929933-.8816689s-.2656548-.9713083-.7579933-1.0903311l-4.859-1.18c-.52978126-.1133874-1.05350507.2157384-1.18114054.7422686s.18724451 1.0589407.71014054 1.2007314l4.859 1.18c.0771591.0194193.1564349.0291609.236.029z"/><path id="Shape" d="m15.339 44.259-4.8 1.408c-.3534994.0912788-.62915867.367952-.71913897.7217842-.08998029.3538322.02002121.7285798.28697157.9776404.2669504.2490605.6484164.3328445.9951674.2185754l4.8-1.407c.349396-.0947916.6202749-.3710222.7082135-.7222057.0879386-.3511834-.0207973-.7224721-.2842903-.970735s-.6405908-.3347265-.9859232-.2260593z"/><circle id="Oval" cx="32" cy="9" r="1"/></g></g></svg>