<?xml version="1.0" encoding="UTF-8"?>
<svg xmlns="http://www.w3.org/2000/svg" id="Icons" fill="rgb(255,255,255)" viewBox="0 0 60 60" width="512" height="512"><path d="M30,0A30,30,0,1,0,60,30,30.034,30.034,0,0,0,30,0ZM54.158,15.87a20.626,20.626,0,0,1-2.444,1.778A24.994,24.994,0,0,0,35.041,5.523a20.918,20.918,0,0,1,.936-2.874A28.081,28.081,0,0,1,54.158,15.87ZM34.62,7.478A22.988,22.988,0,0,1,49.986,18.652a42.109,42.109,0,0,1-6.953,2.906c-1.518.489-2.839.9-3.992,1.234a1,1,0,0,1-1-.292,10.93,10.93,0,0,0-3.4-2.474.984.984,0,0,1-.582-.864C34.021,17.967,34,16.587,34,15A42.043,42.043,0,0,1,34.62,7.478Zm-.65-5.192A35.318,35.318,0,0,0,32,15c0,1.61.021,3.009.056,4.22a2.978,2.978,0,0,0,1.735,2.618,8.945,8.945,0,0,1,2.781,2.024,3,3,0,0,0,2.2.969,2.922,2.922,0,0,0,.834-.121c1.167-.341,2.5-.752,4.044-1.249a35.232,35.232,0,0,0,11.48-5.8,27.762,27.762,0,0,1,2.453,7.545,35.212,35.212,0,0,0-12.7,2.06c-1.413.457-2.759.916-4,1.362a2.971,2.971,0,0,0-1.946,2.461,8.882,8.882,0,0,1-1.062,3.266,2.982,2.982,0,0,0,.119,3.142c.749,1.107,1.57,2.271,2.438,3.458a35.179,35.179,0,0,0,9.056,9.121,28.137,28.137,0,0,1-6.407,4.668A34.963,34.963,0,0,0,37.2,43.313c-.9-1.246-1.758-2.386-2.538-3.389a2.979,2.979,0,0,0-2.94-1.089,9.1,9.1,0,0,1-3.443,0,2.976,2.976,0,0,0-2.94,1.089c-.779,1-1.633,2.143-2.536,3.389A34.95,34.95,0,0,0,16.92,54.747a28.167,28.167,0,0,1-6.407-4.668,35.157,35.157,0,0,0,9.053-9.118c.871-1.19,1.692-2.354,2.441-3.46a2.984,2.984,0,0,0,.12-3.142,8.877,8.877,0,0,1-1.063-3.266,2.971,2.971,0,0,0-1.946-2.462c-1.241-.446-2.587-.905-4-1.362a35.231,35.231,0,0,0-12.7-2.06,27.762,27.762,0,0,1,2.453-7.545,35.226,35.226,0,0,0,11.482,5.8c1.538.5,2.875.908,4.042,1.249a2.922,2.922,0,0,0,.834.121,3,3,0,0,0,2.2-.969,8.956,8.956,0,0,1,2.782-2.025,2.976,2.976,0,0,0,1.734-2.616C27.979,18.009,28,16.61,28,15A35.318,35.318,0,0,0,26.03,2.286a27.7,27.7,0,0,1,7.94,0ZM53,30A22.868,22.868,0,0,1,46.958,45.5a42.215,42.215,0,0,1-4.911-5.716c-.856-1.169-1.662-2.313-2.4-3.4a.992.992,0,0,1-.028-1.046,10.862,10.862,0,0,0,1.3-4,.98.98,0,0,1,.638-.818c1.22-.439,2.545-.891,3.94-1.343a42.051,42.051,0,0,1,7.336-1.737A22.756,22.756,0,0,1,53,30ZM39.5,50.934a22.875,22.875,0,0,1-19,0,41.981,41.981,0,0,1,3.92-6.447c.891-1.227,1.731-2.35,2.5-3.337A1,1,0,0,1,27.9,40.8a11.127,11.127,0,0,0,4.2,0,1,1,0,0,1,.981.352c.767.987,1.607,2.11,2.5,3.338A41.834,41.834,0,0,1,39.5,50.934ZM7.164,27.433A41.962,41.962,0,0,1,14.5,29.171c1.394.451,2.719.9,3.939,1.342a.98.98,0,0,1,.638.819,10.857,10.857,0,0,0,1.3,4,.994.994,0,0,1-.029,1.046c-.736,1.087-1.542,2.231-2.4,3.4A42.163,42.163,0,0,1,13.042,45.5,22.508,22.508,0,0,1,7.164,27.433ZM26,15c0,1.587-.021,2.967-.056,4.163a.982.982,0,0,1-.581.862,10.942,10.942,0,0,0-3.4,2.475,1,1,0,0,1-1,.292c-1.153-.338-2.474-.745-3.99-1.233a42.133,42.133,0,0,1-6.955-2.907A22.988,22.988,0,0,1,25.38,7.478,42.043,42.043,0,0,1,26,15ZM24.023,2.649a20.918,20.918,0,0,1,.936,2.874A24.994,24.994,0,0,0,8.286,17.648,20.74,20.74,0,0,1,5.842,15.87,28.081,28.081,0,0,1,24.023,2.649ZM2.138,27.231a20.774,20.774,0,0,1,3.038,0A24.5,24.5,0,0,0,5,30a24.866,24.866,0,0,0,6.534,16.844A20.567,20.567,0,0,1,9.1,48.606,27.88,27.88,0,0,1,2,30C2,29.065,2.048,28.142,2.138,27.231Zm16.62,28.405a21.307,21.307,0,0,1,.935-2.873,24.863,24.863,0,0,0,20.614,0,21.307,21.307,0,0,1,.935,2.873,27.913,27.913,0,0,1-22.484,0ZM50.9,48.606a20.567,20.567,0,0,1-2.434-1.762A24.866,24.866,0,0,0,55,30a24.5,24.5,0,0,0-.176-2.771,20.774,20.774,0,0,1,3.038,0c.09.911.138,1.834.138,2.769A27.88,27.88,0,0,1,50.9,48.606Z"/><path d="M25,30a5,5,0,1,0,5-5A5.006,5.006,0,0,0,25,30Zm8,0a3,3,0,1,1-3-3A3,3,0,0,1,33,30Z"/><path d="M30,23a1,1,0,0,0,1-1V21a1,1,0,0,0-2,0v1A1,1,0,0,0,30,23Z"/><path d="M22.7,26.577l-.951-.309a1,1,0,1,0-.617,1.9l.951.309a1,1,0,1,0,.617-1.9Z"/><path d="M24.488,35.884l-.588.809a1,1,0,0,0,1.62,1.176l.587-.809a1,1,0,1,0-1.619-1.176Z"/><path d="M34.114,35.662a1,1,0,0,0-.221,1.4l.587.809a1,1,0,1,0,1.62-1.176l-.588-.809A1,1,0,0,0,34.114,35.662Z"/><path d="M37.608,28.528a1.007,1.007,0,0,0,.309-.049l.951-.309a1,1,0,1,0-.617-1.9l-.951.309a1,1,0,0,0,.308,1.951Z"/></svg>
