<svg height="496pt" viewBox="0 -80 496 496" fill="rgb(255,255,255)" width="496pt" xmlns="http://www.w3.org/2000/svg"><path d="m496 200h-32v-16h-32v-12l-37.335938-28h-26.664062v-88c0-13.230469-10.769531-24-24-24h-8v-8c0-13.230469-10.769531-24-24-24h-224c-10.414062 0-19.214844 6.710938-22.527344 16h-65.472656v48h64v33.472656c-9.289062 3.3125-16 12.113282-16 22.527344v56h-48v128h48v8c0 13.230469 10.769531 24 24 24h240c10.414062 0 19.214844-6.710938 22.527344-16h9.472656c10.414062 0 19.214844-6.710938 22.527344-16h28.144531l37.328125-28v-12h32v-16h32zm-176-176v8h-32v64h-176v-80h200c4.40625 0 8 3.585938 8 8zm-232-8h8v80h-16v-72c0-4.414062 3.59375-8 8-8zm-72 32v-16h48v16zm32 144v20.449219c-4.726562-2.753907-10.144531-4.449219-16-4.449219s-11.273438 1.695312-16 4.449219v-20.449219zm0 48c0 8.824219-7.175781 16-16 16s-16-7.175781-16-16 7.175781-16 16-16 16 7.175781 16 16zm-32 48v-20.449219c4.726562 2.753907 10.144531 4.449219 16 4.449219s11.273438-1.695312 16-4.449219v20.449219zm304 24c0 4.414062-3.59375 8-8 8h-200v-184h-16v184h-24c-4.40625 0-8-3.585938-8-8v-192c0-4.414062 3.59375-8 8-8h200v192h16v-192h24c4.40625 0 8 3.585938 8 8zm32-16c0 4.414062-3.59375 8-8 8h-8v-184c0-13.230469-10.769531-24-24-24h-8v-48h40c4.40625 0 8 3.585938 8 8zm64-28-26.664062 20h-21.335938v-128h21.335938l26.664062 20zm32-20h-16v-48h16zm32-16h-16v-16h16zm0 0"/></svg>