<svg id="Capa_1" fill="rgb(255,255,255)" enable-background="new 0 0 499.5 499.5" height="512" viewBox="0 0 499.5 499.5" width="512" xmlns="http://www.w3.org/2000/svg"><g><path d="m127.741 230.5c0 56.7 47.746 103.509 103.509 103.509 55.409 0 103.509-47.09 103.509-103.509 0-57.087-47.559-103.509-103.509-103.509-56.58 0-103.509 46.967-103.509 103.509zm52.185 59.172-1.175 12.04c-14.12-10.438-25.037-24.967-30.988-41.823l14.877-12.233c7.589-6.233 17.175-9.666 26.99-9.666h9.536c.826 3.539 2.219 6.86 4.086 9.861l-6.755 6.755c-9.39 9.389-15.274 21.841-16.571 35.066zm51.324 29.337c-13.698 0-26.678-3.128-38.266-8.708l1.871-19.168c.958-9.774 5.309-18.979 12.249-25.919l6.747-6.746c3.011 1.88 6.346 3.284 9.9 4.115v9.817c0 13.42 4.729 26.489 13.317 36.8l7.353 8.828c-4.299.644-8.696.981-13.171.981zm-17.952-88.548c.021-9.87 8.045-17.892 17.913-17.914.013 0 .025.002.039.002s.026-.002.039-.002c9.868.021 17.892 8.044 17.913 17.914 0 .01-.001.019-.001.029 0 .013.002.025.002.039-.016 9.874-8.042 17.902-17.914 17.923-.013 0-.025-.002-.039-.002s-.026.002-.039.002c-9.872-.021-17.898-8.049-17.914-17.923 0-.013.002-.025.002-.039.001-.01-.001-.019-.001-.029zm47.291 83.543-11.997-14.403c-6.347-7.621-9.843-17.28-9.843-27.2v-9.817c3.545-.829 6.871-2.227 9.876-4.1l6.941 6.941c9.493 9.492 22.081 15.39 35.443 16.604l11.403 1.039c-10.444 14.1-24.973 24.998-41.823 30.936zm59.17-83.504c0 13.708-3.133 26.697-8.719 38.291l-18.671-1.7c-9.875-.898-19.179-5.258-26.196-12.274l-6.94-6.94c1.874-3.007 3.273-6.337 4.102-9.886h9.786c13.42 0 26.489-4.729 36.8-13.317l8.854-7.375c.646 4.307.984 8.716.984 13.201zm-37.01-59.77 1.04-11.413c14.107 10.439 25.013 24.967 30.956 41.816l-14.425 12.014c-7.621 6.347-17.281 9.843-27.2 9.843h-9.79c-.831-3.551-2.234-6.882-4.113-9.891l6.926-6.926c9.493-9.493 15.391-22.081 16.606-35.443zm-51.499-28.739c13.696 0 26.675 3.128 38.261 8.705l-1.701 18.674c-.898 9.876-5.257 19.18-12.274 26.197l-6.934 6.935c-2.999-1.865-6.317-3.258-9.853-4.085v-9.507c0-13.277-4.643-26.243-13.077-36.514l-7.733-9.405c4.343-.657 8.788-1 13.311-1zm-29.416 5.032 12.25 14.897c6.233 7.591 9.666 17.176 9.666 26.99v9.507c-3.545.829-6.872 2.228-9.876 4.1l-6.74-6.74c-9.389-9.39-21.84-15.274-35.065-16.572l-12.051-1.176c10.433-14.126 24.961-25.049 41.816-31.006zm-50.399 45.241 19.173 1.87c9.774.959 18.979 5.31 25.919 12.25l6.74 6.74c-1.871 3.002-3.268 6.325-4.097 9.866h-9.54c-13.278 0-26.244 4.644-36.514 13.077l-9.379 7.712c-.655-4.333-.996-8.767-.996-13.28 0-13.686 3.123-26.655 8.694-38.235zm339.815-101.847c4.142 0 7.5-3.357 7.5-7.5v-68.417c0-7.995-6.505-14.5-14.5-14.5h-16c-7.995 0-14.5 6.505-14.5 14.5v.5h-220.35c-.141 0-.279.013-.418.021-.578-.004-1.153-.021-1.732-.021-57.562 0-111.679 22.416-152.381 63.118-40.703 40.703-63.119 94.82-63.119 152.382v224h-.5c-7.995 0-14.5 6.505-14.5 14.5v16c0 7.995 6.505 14.5 14.5 14.5h127.78c7.995 0 14.5-6.505 14.5-14.5v-16c0-7.995-6.505-14.5-14.5-14.5h-.5v-27.498c27.52 12.44 57.614 18.998 88.72 18.998 57.562 0 111.679-22.416 152.381-63.118 40.703-40.703 63.119-94.82 63.119-152.382 0-31.105-6.558-61.199-18.998-88.72h25.998v.5c0 7.995 6.505 14.5 14.5 14.5h16c7.995 0 14.5-6.505 14.5-14.5v-24.363c0-4.143-3.358-7.5-7.5-7.5s-7.5 3.357-7.5 7.5v23.863h-15v-126.78h15v67.917c0 4.143 3.358 7.5 7.5 7.5zm-460.5 219.355c10.695 27.068 26.92 51.911 48.119 73.11 14.638 14.638 31.017 26.896 48.661 36.611v35.007h-96.78zm111.78 174.728h-126.78v-15h126.78zm289.22-254c0 110.556-89.944 200.5-200.5 200.5s-200.5-89.944-200.5-200.5 89.944-200.5 200.5-200.5 200.5 89.944 200.5 200.5zm22-103.72h-33.507c-9.716-17.644-21.974-34.024-36.612-48.662-21.198-21.198-46.041-37.423-73.109-48.118h143.228zm-222.5-36.251c-26.842 0-52.924 7.622-75.424 22.041-3.487 2.234-4.502 6.874-2.268 10.361 2.234 3.486 6.872 4.502 10.361 2.268 20.08-12.868 43.363-19.67 67.331-19.67 68.909 0 124.97 56.062 124.97 124.971s-56.062 124.971-124.97 124.971-124.97-56.062-124.97-124.971c0-30.96 11.404-60.662 32.111-83.636 2.773-3.077 2.527-7.819-.549-10.593-3.077-2.772-7.819-2.526-10.592.55-23.196 25.735-35.97 59.003-35.97 93.679 0 77.18 62.791 139.971 139.97 139.971s139.97-62.791 139.97-139.971-62.79-139.971-139.97-139.971z"/></g></svg>