<?xml version="1.0" encoding="utf-8"?>
<!-- Generator: Adobe Illustrator 23.0.1, SVG Export Plug-In . SVG Version: 6.00 Build 0)  -->
<svg version="1.1" id="Warstwa_1" xmlns="http://www.w3.org/2000/svg" xmlns:xlink="http://www.w3.org/1999/xlink" x="0px" y="0px"
	 viewBox="0 0 1110 1280" style="enable-background:new 0 0 1110 1280;" xml:space="preserve">
<style type="text/css">
	.st0{fill:#2A2A2A;stroke:#FFF4F4;stroke-width:20;}
</style>
<g transform="translate(0.000000,1280.000000) scale(0.100000,-0.100000)">
	<path class="st0" d="M7603,12793c-35-7-27-29,17-50c22-10,40-21,40-25s-12-16-27-28c-40-32-53-54-64-117c-6-32-17-68-25-80
		c-12-20-81-63-100-63c-4,0-3,31,0,70c6,62,5,70-13,82c-19,12-19,12,1,41c26,36,37,117,17,117c-18,0-23-8-142-230
		c-153-287-164-301-186-239c-16,47-14,73,13,131c14,29,34,78,46,108c11,30,42,86,68,123c45,66,46,69,27,83c-29,21-54,17-67-11
		c-13-30-24-32-33-6c-10,33-46,71-66,71c-23,0-34-23-49-102c-6-31-18-62-27-70c-29-23-43-72-33-109c5-18,8-34,6-36s-21,7-41,22
		c-21,14-41,25-46,25c-20,0-61-71-61-105c0-29-5-38-29-51c-32-16-36-35-15-85c7-19,16-46,20-62c6-25,5-27-18-21c-18,4-35-1-57-17
		c-31-22-31-22-25-1c5,14,0,27-15,41c-13,12-25,21-28,21s-13,5-21,10c-13,8-12,11,5,24c27,19,14,29-21,16c-22-9-25-13-14-20
		c15-9,16-9-35-25c-20-6-19,5,2,20c15,11,13,14-22,24c-54,15-73,15-57-1c7-7,12-35,12-64c0-28,7-68,15-87c8-20,15-41,15-47
		c0-20-31-10-42,15c-11,24-53,45-93,45c-12,0-43-11-70-25c-28-15-55-23-67-19c-27,8-48-13-48-52c0-44,12-74,45-106c33-33,28-35-25-8
		c-52,26-80,26-80,0c0-24-29-83-59-120c-26-32-26-24-1,32c35,79,64,298,41,312c-15,10-29-17-51-97c-11-43-46-127-78-186l-57-108
		l-31,34c-25,26-39,33-70,33c-22,0-49-7-61-15c-22-15-22-15-21,20c2,48-18,68-32,31c-5-15-10-43-10-62c0-45-16-74-40-74
		c-26,0-90-57-90-81c0-10,9-23,21-29c11-7,18-18,15-25c-2-7,4-21,15-31c19-17,18-18-53-39c-182-53-298-155-177-155c30,0,23-13-21-38
		c-42-24-51-50-25-72c20-17,19-30-7-57c-20-21-20-24-5-41c46-50,3-80-132-93c-109-10-140-18-160-43c-34-41,25-63,72-26
		c29,23,70,26,86,6c15-18-4-33-49-38c-30-3-35-7-38-31c-4-34,15-43,68-29c51,13,57,3,30-53c-24-49-31-53-50-30c-7,8-22,15-33,15
		s-31,9-43,21c-14,13-29,19-41,15c-22-7-109-93-102-101c3-2,43-12,89-21c96-18,115-26,131-55c16-30,4-34-27-10c-63,49-164,49-214,0
		c-16-16-35-29-42-29c-8,0-29-15-47-34l-33-34l29-26l28-26h-38c-47,0-48-15-2-31c45-17,45-29,0-29c-40,0-44-9-15-28
		c26-16,19-28-33-52c-23-11-55-31-72-44c-48-39-26-48,110-44l117,3l-53-48c-30-27-67-55-82-64c-26-13-31-13-46,1c-24,22-44,20-69-7
		c-29-31-28-45,9-90c32-39,30-45-11-22c-45,26-66,19-89-28c-36-74-37-102-6-148l27-42l-28,7c-16,4-36,9-45,12c-22,6-50-22-42-44
		c10-30,46-62,67-62c12,0,38,14,59,31c20,17,37,27,37,22c0-17-93-114-166-174c-41-33-72-64-69-69c3-4-21-31-52-59l-58-51h58
		c65,0,73-10,21-29c-23-8-34-18-30-26c5-15-29-65-45-65c-6,0-22,14-36,30c-30,36-64,41-60,8c1-16-5-23-30-30c-42-11-79-58-99-124
		c-9-31-29-71-46-90l-30-34h30c41,0,48-15,22-48l-22-27l21-3c29-5,88,15,134,44c47,31,48,47,2,42c-19-2-35-1-35,3c0,12,83,77,112,88
		c38,14,58-8,58-64c0-33-6-50-22-65c-12-11-25-20-29-20c-16,0-39-33-49-69c-11-43-26-51-101-51c-56,0-64-7-36-31l22-19l-50,2l-50,3
		l3,41c4,48-14,68-51,59c-33-9-78-55-54-55c55,0-20-71-127-121c-36-17-66-33-66-36s11-14,25-25c18-14,25-29,25-55v-35l-34,22
		c-44,26-53,13-21-34l24-36h-87c-99,0-129-11-97-36c18-14,12-15-80-14c-171,3-175,3-175-20c0-17,7-20,43-20c46,0,108-34,128-71
		c9-17,6-28-17-60c-15-21-31-39-35-39c-5,0-9,21-9,46c0,85-35,106-100,62c-48-33-58-53-37-76c9-10,17-21,17-24s-28-3-62-1
		c-54,4-67,2-91-17c-57-45-40-53,146-65c91-6,117-12,117-24c0-15-52-31-100-31c-36,0-52-5-58-17c-9-15-14-12-45,20
		c-45,49-86,47-129-7c-24-29-22-34,9-38c19-2,29-10,31-23c2-11,10-25,19-32c13-10,10-14-19-29l-33-18l49-9l48-10l-76-29
		c-114-44-105-52,74-63c58-3,109-10,113-15c12-10-40-26-133-40c-41-6-79-15-84-20c-21-21,68-101,95-85c15,10,39-14,39-39
		c0-11-7-41-16-66c-16-45-12-104,7-116c6-3,28,8,50,26s43,29,46,26c11-11-31-102-62-133c-23-23-29-35-21-42c20-17,61-22,89-12
		c36,14,35-2-2-40c-16-16-40-29-53-29s-48-22-83-51c-68-59-89-85-80-99c15-25,95,1,95,31c0,32,106,89,166,89c33,0,30-18-8-57
		c-30-31-31-33-10-33c31,0,27-15-9-41c-21-15-29-27-26-41c3-12-2-23-14-31c-24-15-25-30-1-23c9,2,37,8,62,11l45,7l-43-31
		c-26-19-42-39-42-52v-20l-26,20c-34,27-54,27-54-1v-21l-25,23l-25,23v-33c0-46,27-84,119-168c46-41,81-82,83-95c3-21,7-22,94-22
		c82,0,96,3,150,31c32,17,65,29,71,27c7-3,47,28,88,69c52,52,77,83,81,106c5,23,15,37,32,43c13,5,47,30,75,55c40,36,55,44,76,39
		c34-7,47,3,66,48c10,25,15,65,14,125c-1,48,2,98,6,112c17,57,67,80,79,38c3-13,6-65,6-116s5-102,11-113c5-11,34-30,64-43
		c34-16,59-34,68-52l14-28l14,25c9,16,14,59,14,125c1,79,5,108,19,128c9,15,14,31,11,37c-4,5,13,31,37,58c69,77,89,179,64,321
		c-21,114-21,116,13,128s58,44,67,89c5,27,0,38-39,80c-24,26-52,63-62,82c-25,50-36,194-36,491c0,285,6,329,56,416
		c34,58,106,121,154,134c23,6,63,8,90,4c68-9,96,0,111,35c17,42,4,85-41,137c-46,53-47,44,23,203c66,152,85,235,96,423
		c10,170,16,188,64,188c40,0,94,24,107,48c6,12,8,40,5,67c-6,38-3,49,14,68c37,40,182,279,182,301c0,11-14,41-30,66s-30,52-30,60
		c0,9,18,34,41,55c24,24,57,74,81,123c44,92,103,162,137,162c12,0,35-7,52-16c63-32,92,7,103,141c4,44,12,93,18,108
		c10,26,15,28,47,24c20-2,92-29,161-60c171-75,164-75,171-2c4,33,16,82,28,108c27,61,26,71-3,143c-13,32-22,62-20,65s24,9,50,13
		c30,4,68,20,106,46c74,49,129,66,160,49c26-14,37-27,97-124c73-118,138-175,199-175c15,0,54,16,86,35s69,35,83,35c13,0,54-18,91-40
		c86-52,109-51,139,11c22,47,45,70,102,101l30,17l-1,98c0,90,2,106,35,190c20,51,39,109,43,128c7,40,13,44,146,90
		c42,14,109,46,149,71s78,43,84,40c7-2,57-42,111-89c182-155,203-219,117-359c-38-61-41-103-9-103c13,0,23,12,33,40
		c17,49,52,87,120,132c62,39,72,66,47,118c-22,47-36,52-77,26c-19-12-37-21-41-21c-15,0-4,33,19,55c39,40,37,59-8,63
		c-20,2-35,7-32,12c11,18-16,50-74,89c-57,39-77,64-65,82c10,17,55,9,132-21c91-37,91-37,232,54l101,66l-32,41c-40,51-85,72-128,59
		c-37-10-37-8-11,36c21,33,21,33,1,43c-30,16-49,13-56-9c-6-20-6-20-33,0c-15,12-43,31-62,43c-21,13-39,36-46,55c-16,51-27,56-61,28
		c-19-16-42-53-58-93c-31-79-66-128-95-136c-31-8-33,7-9,63c12,28,19,54,15,57c-3,4-27-3-51-15c-25-12-48-22-50-22s7,17,21,37
		c17,26,23,45,19,64c-5,22-2,28,17,33c13,3,32,6,44,6c27,0,57,33,52,57c-2,10-18,23-38,30C7746,12798,7648,12802,7603,12793z
		 M3420,8420c24-47,24-50,6-50c-13,0-36,48-36,76C3390,8469,3399,8462,3420,8420z"/>
	<path class="st0" d="M6870,12610c0-28,21-70,35-70c15,0,45,32,45,48c0,12-50,42-70,42C6875,12630,6870,12621,6870,12610z"/>
	<path class="st0" d="M5957,12221c-3-11-17-22-36-26c-17-4-31-11-31-17c0-12,58-68,70-68c19,0,40,33,40,61
		C6000,12225,5968,12262,5957,12221z"/>
	<path class="st0" d="M7620,12184c-52-30-113-60-135-66s-48-18-57-26c-29-24-65-94-94-178c-22-66-27-95-26-177l1-98l-30-17
		c-75-41-109-87-123-164c-4-21-10-38-13-38c-4,0-50,25-104,55c-53,30-109,55-125,55c-15,0-48-13-73-29c-65-41-101-46-154-23
		s-97,75-176,202c-54,88-60,95-87,92c-50-6-77-30-72-63c6-38-3-43-49-30c-22,6-41,7-46,2c-17-17,84-111,228-214
		c175-126,271-220,315-311c30-60,34-79,40-188c6-95,11-124,24-133c12-9,16-28,16-72s7-76,26-118c25-55,26-63,18-144
		c-5-47-8-133-8-191c0-98,2-110,33-176c38-84,85-133,161-171c34-17,60-39,68-55c16-35,41-174,44-253l3-60h-52c-46,0-56-4-88-35
		c-20-19-81-100-135-180c-107-158-145-201-203-225c-59-24-136-144-137-211c0-40-13-51-79-65c-54-11-62-20-75-80c-3-15-24-51-46-80
		c-22-30-43-63-46-74s4-58,15-105c12-47,21-117,21-156c0-52,7-87,25-132c28-70,31-123,11-202c-19-76-40-273-32-304
		c8-32,32-45,104-54c56-7,57-8,57-40c0-51,24-58,99-33c34,12,65,21,69,21s4-26,1-58c-7-64,6-102,34-102c48,0,302,73,366,105
		c39,19,97,39,127,44s96,25,147,45c57,23,121,39,172,45c62,7,90,15,120,36c46,32,391,405,486,525c91,116,186,254,220,320
		c60,117,32,210-88,291c-72,49-131,106-173,168c-24,35-27,44-15,51c45,25,102,74,112,95c16,35,3,69-47,125c-44,50-46,53-44,111
		c2,48-2,65-20,87c-37,47-44,74-49,193c-5,137,9,218,44,256c43,46,36,73-88,386l-91,227l39,63c21,34,64,111,96,171l57,108l-41,67
		c-51,84-99,134-164,171c-32,18-55,39-62,57c-36,92-41,182-15,263c13,41,14,56,5,71c-17,27-15,38,15,81c18,26,26,50,25,75
		c-1,26,11,59,40,111c74,134,53,198-109,332c-53,44-101,79-107,79C7720,12238,7672,12213,7620,12184z"/>
	<path class="st0" d="M5800,12060c-6-10-13-40-16-65c-6-38-4-45,10-45c24,0,66,45,66,70C5860,12072,5821,12099,5800,12060z"/>
	<path class="st0" d="M5963,12054c-32-50-13-179,27-179c28,0,51,65,48,135c-3,62-4,65-30,68C5988,12080,5977,12074,5963,12054z"/>
	<path class="st0" d="M5646,11909c-27-21-62-118-52-145c13-34,96,9,96,50c0,13,7,29,15,36c27,23,13,80-21,80
		C5678,11930,5661,11921,5646,11909z"/>
	<path class="st0" d="M6184,11659c-3-6,1-37,11-69l18-59l-32-65c-27-56-30-69-19-86c11-16,10-25-4-47c-32-53-46-55-123-22
		c-38,17-99,37-135,44c-44,10-70,21-79,35c-17,25-37,26-46,3c-3-10-11-58-16-107c-10-93-37-172-64-182c-9-4-39,6-67,21l-50,27
		l-26-19c-26-20-56-71-113-196c-26-57-35-69-60-74c-16-3-32-10-35-15c-3-4,11-38,31-74c25-45,35-73,31-88c-3-13-33-65-66-115
		c-78-120-107-178-124-251c-18-75-25-84-84-106c-82-30-83-33-98-211c-15-184-27-235-94-392c-64-154-67-163-38-176c13-6,31-30,42-56
		c21-53,17-95-14-147l-20-33l-101,7l-100,7l-53-55c-69-71-94-136-108-282c-11-119-4-444,13-581c11-85,19-102,86-184
		c36-44,41-57,37-84c-10-54-38-101-66-115c-33-15-32-12-12-99c17-74,14-179-7-246c-7-21-30-56-51-78c-28-28-38-48-38-70
		c0-18-7-37-15-43c-11-8-18-43-24-122c-13-160-42-204-99-151l-25,22l6-76c13-151,68-312,199-573c33-67,75-143,93-171s36-70,39-96
		c8-51-6-128-25-139c-8-6,0-31,31-93c29-58,40-92,35-106c-8-27,2-58,21-65c17-7,172,31,192,46c6,6,12,29,12,53c0,80,28,125,78,125
		c13,0,24,11,31,31l11,31l105-7c122-8,123-8,165,75c35,69,56,142,70,240c6,41,17,107,25,145c7,39,18,122,25,185
		c18,193,22,203,112,297c46,48,78,90,78,102c0,24,15,28,24,6c5-14,9-14,35,0c37,18,61,52,61,83c0,19,3,21,19,12c57-30,88,6,41,50
		c-16,15-30,32-30,37s15,16,33,25c51,24,97,68,97,91c0,70-203,298-290,327c-71,24-84,60-85,240c0,140,2,149,38,263
		c37,118,46,180,27,192c-23,14-7,45,46,85c37,28,61,56,73,83c43,99,229,291,381,392c120,81,130,91,179,192c22,45,55,99,74,120
		c71,81,71,81,27,130c-52,56-53,93-5,180c19,35,35,77,35,92c0,28,17,52,110,162c23,26,33,52,41,99c12,75,16,83,36,76c9-4,17,1,20,14
		c7,25,8,25,67-5c40-20,64-25,128-25s80,3,85,16c3,9-4,58-16,108c-23,98-27,185-10,256c19,83,14,160-15,220c-16,35-26,72-26,103
		c0,26-4,47-9,47c-15,0-21,28-26,143c-4,62-11,130-17,152c-25,98-112,195-288,323c-145,105-198,148-251,204
		C6212,11671,6197,11679,6184,11659z"/>
	<path class="st0" d="M5133,11580c-7-10-33-28-58-39c-33-15-45-26-45-41c0-23,17-22,73,7c15,7,27,11,27,9c0-3-13-27-30-53
		c-41-64-40-77,8-68c20,4,37,8,37,8c0,1,8,23,17,49c13,36,14,56,7,90C5156,11596,5148,11605,5133,11580z"/>
	<path class="st0" d="M5263,11565c-11-8-25-34-31-58s-21-52-32-62s-20-30-20-45c0-35-17-50-59-50c-68-1-161-60-148-95
		c13-31,69-15,124,37c17,17,36,27,41,24c6-3,31,10,56,29c26,19,48,35,51,35s-1-16-9-35c-24-57,3-44,99,48c83,80,86,85,83,123
		c-4,52-34,58-71,15c-32-38-37-39-37-2C5310,11568,5290,11584,5263,11565z"/>
	<path class="st0" d="M6093,7623c-19-7-16-62,3-70c21-8,44,21,44,54C6140,7630,6123,7636,6093,7623z"/>
	<path class="st0" d="M6636,7569c-29-23-33-34-12-42c18-7,66,29,66,49S6667,7593,6636,7569z"/>
	<path class="st0" d="M7229,7327c-14-8-62-16-105-19c-83-5-156-32-168-63c-3-8-26-24-50-35c-59-25-72-49-56-106c7-24,19-49,26-55
		c19-16,17-26-5-32c-26-7-19-31,28-93c38-51,76-68,87-40c9,23,41,20,55-5c6-13,8-39,5-64c-9-56,11-75,57-56c61,25,83,24,139-5
		c29-16,85-59,124-96c39-38,77-68,83-68s23,7,36,16c17,11,36,14,58,10c42-8,91,23,118,73c17,32,17,35-3,85c-46,114-19,272,70,422
		l42,69l-123,6c-88,4-147,13-212,32C7312,7338,7261,7344,7229,7327z"/>
	<path class="st0" d="M6621,7116c-18-21,3-56,34-56s52,35,34,56c-6,8-22,14-34,14S6627,7124,6621,7116z"/>
	<path class="st0" d="M6624,6949c-17-5-38-17-48-28c-22-25-18-75,7-79c22-4,120,44,144,70c17,19,17,20-2,34
		C6704,6962,6671,6963,6624,6949z"/>
	<path class="st0" d="M1072,6898c-11-29-25-78-33-108c-14-62-30-86-62-94c-28-7-57-55-57-94c0-52,16-79,50-85l31-7l-24-32
		c-29-38-76-131-87-170c-6-18-3-33,7-47c13-19,12-21-6-21c-54,0-69-37-27-65c37-25,69-10,137,63c34,36,60,62,57,56
		c-55-115-68-146-78-182c-8-33-8-52,1-79c11-35,12-35,23-14c11,19,14,20,31,6c11-8,39-15,63-15h42l-6-54c-4-35-3-56,5-60
		c20-13,11-63-24-137c-19-41-35-83-35-94c0-23,75-102,82-88c3,4,8,21,12,36c5,22,11,27,24,22c57-24,71-27,95-22c24,7,33,14,65,52
		c13,16,112,22,112,7c0-5-13-21-30-37c-80-77-74-205,10-217c14-2,30-14,37-28c19-37,16-136-4-170c-15-27-15-30,0-52
		c51-70,50-67,37-84c-27-32-50-37-73-16c-47,44-156,35-203-15c-33-36-31-60,7-68c22-5,29-11,24-22c-3-9,1-24,10-33c14-15,14-22-2-69
		c-24-74-80-135-151-161c-31-12-62-26-69-32c-13-11-17-67-7-105l6-21l46,24c28,15,55,23,67,19c11-3,48-10,83-15c51-7,70-15,102-44
		c37-33,41-34,72-24c40,13,81,40,127,82l33,31l-15-30c-25-49-75-113-102-131c-14-9-60-20-102-25c-60-7-87-15-118-37
		c-65-45-248-273-232-288c4-4,39,7,79,24c99,43,116,45,167,27c66-23,77-20,105,28c14,24,37,53,50,66c32,30,94,38,133,17
		c17-8,49-18,72-22c37-6,41-4,41,14c0,28,18,31,265,42c222,10,265,17,332,56c39,22,83,67,83,84c0,4-26,11-57,14
		c-111,13-143,44-84,78c16,9,31,26,33,39c2,15,24,38,62,64c134,94,155,246,41,296c-64,28-149,28-180-1c-18-17-30-20-55-15
		c-42,9-47,28-16,68c66,86,31,164-95,213c-63,24-66,30-37,61c36,39,68,94,68,119c0,35-35,69-109,108c-39,20-77,47-86,59
		c-15,20-59,154-85,256c-14,53-84,132-155,172c-42,24-61,29-123,29c-74,0-149,21-138,39c4,5,23,15,44,21c103,34,180,101,96,86
		c-19-4-42-10-50-13c-32-12-11,14,38,47c67,46,119,113,173,224s76,193,54,206c-51,32-272,17-373-26c-110-46-115-44-70,34
		c14,24,28,61,30,81c2,31,16,48,96,123c89,84,92,88,75,105c-15,16-41,18-186,21l-169,3L1072,6898z"/>
	<path class="st0" d="M7116,6730c-27-11-59-29-72-41c-21-19-23-29-21-108c2-78-1-91-25-133c-37-63-103-96-156-79c-52,16-65,29-96,89
		c-36,71-105,142-139,142c-40,0-138-40-162-66c-15-16-24-43-29-80c-3-30-23-97-43-147c-25-66-37-113-41-166l-5-75l46,28
		c118,68,141,76,228,76c46,0,157-7,246-16c162-16,162-16,203,5c22,11,42,21,45,21c2,0,25-18,50-40s53-40,61-40c30,0,79-34,155-106
		c43-41,82-74,87-74s22,10,36,21c18,14,49,24,89,28c34,4,73,14,87,24c33,23,89,95,96,124c14,55-25,171-65,193c-18,9-19,18-14,99
		l6,89l-42,30c-63,46-104,57-156,42c-52-14-65-7-155,86c-52,53-117,94-150,93C7172,6749,7143,6740,7116,6730z"/>
	<path class="st0" d="M5895,6722c-55-34-112-116-129-185c-7-30,9-107,23-107c18,0,59,41,75,74c9,19,16,55,16,80c0,46,5,55,59,99
		c24,19,25,50,1,54C5932,6739,5911,6732,5895,6722z"/>
	<path class="st0" d="M4135,6574c-16-8-48-32-70-53c-67-63-94-79-150-91c-29-6-72-24-94-40c-65-48-74-74-79-246c-7-214,0-255,48-303
		c30-30,40-48,45-87c4-27,9-57,12-67c7-27,45-47,99-53c39-4,56-1,83,16c23,14,30,24,22,29c-45,28-39,241,8,254c11,2,21,15,23,28
		c2,15,12,25,28,29c21,5,26,13,31,50c7,49,40,84,70,75c18-6,69,33,69,53c0,5-18,12-39,16c-59,9-81,43-81,122c0,36,9,97,20,136
		c23,83,25,119,8,136C4173,6593,4171,6593,4135,6574z"/>
	<path class="st0" d="M7058,6128c-25-20-31-20-135-9c-59,6-181,11-270,12c-180,0-197-4-252-66c-25-29-31-44-31-83
		c0-59,24-156,50-197c26-42,88-75,141-75c57-1,126-32,141-65c9-19,9-37,0-75c-6-27-9-55-7-62c3-7,25-26,50-41c24-16,54-44,66-63
		c31-50,84-74,165-74c61,0,68,2,95,31c15,17,45,35,64,40c74,21,145,108,160,196c6,36,12,45,43,60c23,11,39,27,42,43
		c4,16,16,28,35,35c40,12,42,15,25,25c-9,6-14,24-13,51c1,24-6,57-17,78c-43,85-154,181-208,181c-15,0-40,15-64,40
		c-22,22-43,40-47,39C7088,6149,7073,6140,7058,6128z"/>
	<path class="st0" d="M7738,6012c-72-67-91-76-149-68c-45,6-49,5-73-27c-33-43-43-91-26-123c17-31,3-77-25-82
		c-50-10-145-113-145-158c0-12-11-36-25-52c-19-23-24-37-19-59c6-29,4-30-35-37c-67-10-120-36-133-64c-16-33-57-44-131-38
		c-81,8-97-3-97-64c0-27,7-79,16-117c9-37,17-102,17-144c1-88-15-122-60-134c-69-17-71-56-7-114c44-40,46-44,40-83
		c-11-70,25-87,92-43c55,36,110,44,279,45c169,0,292-18,335-50c40-30,93-38,323-55c258-18,267-19,298-51c28-28,29-28,42,51
		c14,80,68,142,150,172c47,17,50,21,53,58c3,39-6,88-35,182c-8,29-13,63-9,76c8,35,44,48,85,31c43-18,75-18,114,2c68,35,81,60,48,91
		c-11,10-21,31-23,48c-3,28-7,30-58,38c-64,10-76,18-85,54c-3,14-23,46-45,70c-51,58-131,218-132,263c0,19,3,55,7,80
		c12,81-47,173-140,216c-61,29-80,30-112,4c-41-32-63-27-63,15c0,44-35,71-82,61c-24-5-34-2-45,14c-11,15-21,18-40,14
		c-19-5-30-2-39,11C7792,6061,7787,6058,7738,6012z"/>
	<path class="st0" d="M4520,6016c-59-22-155-73-170-91c-11-14-11-24,4-65c10-27,15-53,12-59c-13-20,174-154,191-137c3,3-2,17-11,30
		c-22,35-20,43,14,61l30,16l-22,29c-29,40-17,82,27,90c28,5,30,9,29,47c-1,47-26,93-52,92C4563,6029,4539,6023,4520,6016z"/>
	<path class="st0" d="M522,5745c-99-50-102-53-136-120c-29-57-21-63,67-47c72,14,111,47,151,127C649,5798,639,5804,522,5745z"/>
	<path class="st0" d="M6299,5708c-47-49-46-54,11-49c14,1,31,9,38,18c13,18,17,70,5,75C6348,5754,6324,5734,6299,5708z"/>
	<path class="st0" d="M5060,5735c0-19,36-55,55-55c20,0,19,12-6,44C5087,5753,5060,5759,5060,5735z"/>
	<path class="st0" d="M742,5720c-57-23-201-146-237-203c-17-27-17-28,9-65c47-65,67-86,74-76c26,39,87,104,97,104c7,0,18-14,25-31
		c16-39,75-79,117-79c19,0,43,10,61,25c53,44,78,145,36,145c-17,0-30,29-39,84c-4,26-18,51-40,73C811,5731,785,5737,742,5720z"/>
	<path class="st0" d="M3844,5604c11-16,31-46,45-68l25-39l-32-27c-37-31-39-36-12-43c11-3,20-13,20-22c0-34,125-177,200-229l25-18
		l-35,7c-40,8-106,40-115,55s-74,46-114,55l-33,7l3-57c3-44,0-60-12-68c-23-15-86,0-92,22c-8,30-135,44-171,18c-16-12-16-19-6-77
		c22-120-10-236-69-250c-37-9-36-25,4-56c32-24,36-32,31-58c-10-48-54-96-112-122l-54-24v-57c0-32-7-88-17-124c-16-65-16-67,6-130
		c59-162,55-145,33-180l-20-32l29-61c16-34,29-77,29-95c0-57,35-83,199-147c80-32,147-58,148-59c2-1-11-27-28-58
		c-36-67-87-204-99-265c-10-56-2-59,104-38c113,22,186,23,198,3c6-11,17-15,36-11s51-7,111-37l84-42l96,17c53,10,143,28,201,42
		c127,29,169,30,220,4c47-24,49-19,20,65c-11,33-17,68-14,82c4,14,47,59,100,105l94,81l-123,127c-130,136-188,218-189,271
		c-1,26,6,39,34,63c47,40,255,149,338,175c82,27,135,62,156,103c21,40,15,110-21,258c-33,138-61,206-104,253l-35,39l18,46
		c43,114,40,195-10,294c-27,54-54,72-93,65c-17-4-37,1-53,11c-116,79-122,81-147,75c-45-10-184-86-224-122c-34-31-41-33-83-27
		c-90,12-111,48-49,85c61,36,47,46-79,54c-48,4-73,10-82,21c-6,9-25,16-41,16c-42,0-48,11-18,34c49,39,5,73-126,96
		c-35,6-75,14-89,17l-24,6L3844,5604z"/>
	<path class="st0" d="M5610,5564c-107-32-162-56-225-100c-30-20-116-57-205-89c-85-30-163-63-174-74c-18-19-19-24-7-91
		c14-78,9-125-20-182c-25-49-24-67,5-97c62-65,120-247,136-426c10-109,16-135,34-135c6,0,30-17,53-39c29-26,62-44,102-55
		c32-9,71-26,86-38c27-21,27-22,6-29c-29-11-27-23,14-64c52-51,93-43,78,16c-6,20-4,21,23,15c91-21,329-159,380-219
		c37-45,50-50,78-32c31,20,46,13,104-49c24-25,49-46,57-46c7,0,39,14,70,30c50,26,67,30,139,30c95,0,156-18,263-76
		c39-22,75-36,79-31c4,4,0,23-9,42c-37,77-27,94,165,291c118,121,117,119,75,200c-32,62-49,134-62,253l-13,123l-41,42
		c-23,23-41,46-41,52c0,5,23,32,51,59c28,28,59,67,70,87c19,37,19,38-6,155c-24,116-77,295-94,321c-15,24-161,33-447,28
		c-154-3-304-8-334-11c-48-5-62-2-110,22c-46,23-57,35-68,68C5795,5599,5757,5607,5610,5564z"/>
	<path class="st0" d="M4750,5520c0-6,7-26,14-45c16-37,38-39,56-5c8,15,4,23-16,39C4775,5532,4750,5536,4750,5520z"/>
	<path class="st0" d="M373,5454l5-47l-65,7c-60,6-65,5-70-14c-5-20-6-20-29,5c-27,29-55,32-94,9c-27-17-60-62-60-83c0-6,13-11,29-11
		c78,0,82-39,11-110c-27-28-50-55-50-60c0-22,53-42,134-50c47-5,91-12,97-15c18-12,6-31-41-67c-34-26-46-41-48-66c-3-27,1-34,23-42
		c14-6,40-10,58-10c40,0,27-11-48-39c-87-32-105-46-105-82c0-42-22-81-72-124c-24-20-35-34-26-31c10,3,40,8,68,12c47,6,50,5,50-16
		c0-13,8-24,20-27c14-4,20-14,20-34c0-23,4-29,23-29c31,0,140,53,166,81c15,17,31,22,55,21c27-2,44,6,81,38c55,47,69,55,115,65
		c19,4,45,16,56,27c21,19,24,19,54,3c42-21,53-11,81,73c57,173,24,417-71,527c-21,25-42,55-46,67c-6,21-10,19-60-37l-53-59l-62,67
		c-61,67-103,97-135,97C370,5500,368,5492,373,5454z"/>
	<path class="st0" d="M3260,5110c-55-13-78-53-72-123c1-10,15-29,31-43c33-28,64-97,56-125c-11-34-64-69-104-69c-57,0-75,26-79,113
		c-2,40-5,78-7,84c-8,25-33,1-44-40c-5-24-37-97-70-164l-60-122l82-17l81-18l-68-32c-38-18-70-34-72-36c-1-2,28-2,67,0
		c66,4,72,3,137-37c37-22,82-46,101-52c31-11,36-10,54,12c16,20,18,33,13,79c-13,108-15,100,36,120c64,24,101,52,123,94l19,36
		l-32,33c-39,40-39,47-6,78c39,35,84,109,84,137c0,32-48,78-96,91C3389,5121,3311,5122,3260,5110z"/>
	<path class="st0" d="M8800,4773c-8-3-23-12-32-21c-12-10-29-13-56-8c-31,4-45,1-64-14c-30-23-95-39-159-40c-70,0-144-26-172-60
		c-19-22-27-46-32-97c-12-110-36-132-74-67c-21,36-23,36-69,30c-35-5-62-1-109,16c-61,21-63,21-96,3c-28-15-39-16-69-6
		c-19,6-83,16-142,21c-90,8-116,14-159,39c-29,16-75,34-103,40c-87,18-254,24-344,12c-71-9-93-17-136-46c-28-19-56-35-62-35
		c-20,0-34-41-28-82c4-22,21-67,38-101c25-50,31-73,30-120c-2-70-3-72-48-93c-37-18-147-131-196-202l-30-44l16-63
		c24-97,23-105-18-98c-31,5-37,2-55-27c-46-76-31-164,35-202c52-30,181-58,269-58s140-13,149-36c17-43,274,35,338,103
		c43,47,76,57,178,57c147-1,302-51,378-122c30-28,32-35,32-95c0-64,0-64,33-73c29-9,33-15,43-64c12-61,25-90,48-110
		c10-7,16-28,16-51c0-34,4-41,28-50l27-11l-30-14c-16-7-49-13-71-14c-34,0-43,4-47,21c-5,17-9,19-25,10c-38-20-182-261-182-303
		c0-18,4-20,33-14c57,10,210,93,278,150c75,62,103,97,121,152c12,35,19,41,68,58c33,11,85,19,130,20c63,1,80-3,108-22
		c38-28,40-44,7-62c-14-7-25-17-25-21c0-13,60-27,165-39c209-25,220-69,42-157l-78-39l75-48c42-26,81-56,86-66c6-10,10-47,10-82
		c0-103,16-108,146-43c49,24,97,45,106,45c31,0,64,21,82,52l18,30l78-7c84-7,133,7,142,42c12,47-11,53-112,26c-36-9-77-13-90-10
		c-14,3-53,33-86,67c-37,35-70,60-83,60c-46,0-19,69,56,142c41,41,70,56,190,103c78,30,152,55,165,55s39,11,58,24
		c20,13,73,36,120,51c117,39,136,49,143,82s97,137,138,158c17,9,52,15,89,14c76-2,87,8,102,88c9,51,9,67-5,102c-29,71-17,125,44,202
		l32,40l-24,25c-51,55-331,163-386,149c-17-4-29,4-55,36c-102,127-111,130-191,79c-59-37-69-37-114-2c-30,22-46,27-87,25
		c-28,0-59,3-69,9c-23,12-49,71-41,92c10,25-3,59-37,102c-40,50-51,56-115,59c-30,1-60,8-68,14c-24,20-38,108-25,146
		c14,37,3,75-33,121C8926,4746,8835,4785,8800,4773z"/>
	<path class="st0" d="M2945,4454c-91-37-93-37-191-18c-64,12-140-51-132-109c3-20,8-22,55-19c51,2,53,2,72-35c24-47,42-64,108-97
		c60-30,88-65,81-101c-3-14-2-28,3-31c11-6,45,11,82,42c34,29,47,30,47,6c0-36,52-123,88-147c68-46,108-26,99,47
		c-8,54,12,114,36,112c27-3,50,39,42,75c-8,37-48,81-73,81c-27,0-39,17-47,70c-9,54-25,75-86,105c-25,13-51,31-58,39
		C3053,4495,3049,4495,2945,4454z"/>
	<path class="st0" d="M2486,4330c-48-24-65-47-66-86c-1-111-66-198-205-272c-84-45-90-51-93-83c-5-53-16-59-101-59
		c-102,0-175,20-202,54c-11,15-38,36-60,46c-45,23-48,18-24-49c8-24,22-82,30-129c9-48,19-95,21-104c5-15-1-18-38-18
		c-45,0-147-14-185-26c-17-5-33,5-76,45c-58,55-68,59-88,35c-23-28-72-47-148-55c-44-5-81-15-90-24c-14-14-12-18,23-47
		c38-31,38-32,33-90l-5-58h33c18,0,71-16,117-36c45-20,115-44,153-53c65-16,70-19,70-45c1-19,14-39,43-66c33-31,42-46,42-73
		c0-52,48-115,132-173l73-50l-3-70c-10-238-46-491-91-634c-26-83-26-87,4-94c18-5,25-13,25-31c0-54,127-95,293-95
		c182,0,282-22,346-76c39-32,100-41,156-22c42,14,58,36,75,105c13,52,59,99,140,142c85,46,130,43,310-15c80-26,157-49,171-51
		c34-6,69,12,155,84c39,32,85,66,102,75c30,16,72,71,72,93c0,7-14,9-34,7c-26-3-41,3-70,29c-49,42-66,78-66,136c-1,26-7,59-15,73
		c-22,38-18,47,26,77c45,30,45,30,8,126c-18,48-20,63-11,78c17,27,15,49-10,86c-29,42-49,41-118-2c-30-18-56-32-58-31
		c-1,2,7,19,18,39c14,23,19,44,15,60c-5,20,0,30,28,51c19,15,38,38,41,51c4,14,27,48,52,76c24,28,47,63,51,79c3,20,14,32,33,39
		c34,11,49,38,83,148c15,44,38,110,52,145c36,84,44,114,36,124c-3,5-33,19-66,30c-33,12-114,44-181,72c-66,27-147,56-180,63
		c-41,9-83,30-139,68c-89,60-132,81-169,81c-30,0-39,12-46,65c-5,37-7,40-47,47c-56,9-98,42-124,95l-21,43l-49-6l-50-7l-16,42
		c-14,36-20,41-47,41C2539,4349,2508,4341,2486,4330z"/>
	<path class="st0" d="M5000,4301c-151-41-349-138-395-193c-31-36-28-62,13-121c67-99,267-299,332-332c45-23,57-19,121,42l60,57
		l47-13c26-8,70-20,97-28c75-22,245-30,259-12c7,9,29,14,57,14c58,0,124,41,145,91c11,25,32,46,74,72c76,47,79,69,14,115
		c-61,44-243,137-267,137c-11,0-32-11-49-25c-16-14-34-25-39-25c-18,0-109,93-115,117c-8,29-40,46-118,64c-44,11-60,19-67,37
		c-7,19-16,22-56,21C5086,4319,5036,4311,5000,4301z"/>
	<path class="st0" d="M3286,4053c-18-46,1-139,30-150c22-8,54,31,54,66C3370,4024,3301,4093,3286,4053z"/>
	<path class="st0" d="M5961,3883c-28-22-36-24-53-14c-12,7-32,10-50,6c-36-8-98-61-98-84c0-36-119-120-171-121c-28,0-68-40-74-74
		c-12-64,49-157,130-196c41-20,49-20,125-9c80,11,110,26,110,55c0,18,31,31,92,39c25,3,52,13,59,21c8,10,27,15,53,14
		c64-3,65-2,106,42c32,35,46,43,87,48c67,7,161-5,182-24c28-25,57-19,88,19c26,32,90,172,82,178c-2,2-35,17-74,34
		c-154,67-251,69-360,8c-81-45-104-43-122,9c-16,47-40,76-62,76C6002,3910,5980,3898,5961,3883z"/>
	<path class="st0" d="M5070,3665c-63-52-85-60-124-46c-55,21-78,13-164-54c-90-71-94-80-67-155c18-52,19-97,3-103c-7-2-29,2-48,10
		c-48,20-104,18-202-6c-46-11-123-28-173-36c-49-9-103-19-118-22c-17-3-44,2-67,12c-55,25-70,16-70-40c0-36,6-52,26-72
		c26-26,31-26,106-8c20,5,34,1,54-14c33-26,54-26,96-1c33,19,158,52,207,54c18,1,33-10,55-41c37-50,84-74,191-98
		c119-26,229-24,361,7c204,48,263,91,265,193c2,82,9,98,63,123l49,24l-6,61c-8,79-33,163-56,186c-11,11-40,20-77,24
		c-32,3-86,15-118,27C5164,3722,5134,3718,5070,3665z"/>
	<path class="st0" d="M6278,3581c-22-5-55-24-82-49c-41-38-51-42-96-42c-27,0-50-4-50-9c0-12-56-31-90-31c-26,0-60-26-60-47
		c0-22-66-38-156-38c-84,0-94,2-133,29c-23,16-43,27-44,25c-2-2-11-17-21-32c-10-16-33-35-52-43c-27-11-34-19-29-33c3-10-1-24-10-31
		c-8-7-22-38-31-68c-22-76-14-150,23-202c37-54,152-130,253-169c75-29,83-31,108-17c84,47,120,56,395,106c169,30,167,29,196,135
		c24,91,218,345,262,345c36,0,32,24-11,62c-40,36-118,68-164,68c-11,0-29,9-41,20C6421,3582,6336,3593,6278,3581z"/>
	<path class="st0" d="M7572,3548c-33-7-42-13-38-25c12-32,170-289,201-328c41-52,43-61,56-250c5-88,14-164,19-169
		c17-17,58,34,110,136c28,54,59,102,70,108c10,5,38,7,62,4c34-5,48-2,61,11c22,22,22,52-1,59c-10,3-30,31-45,62c-16,31-46,78-68,104
		c-45,53-47,67-18,104c26,33,19,55-21,63c-17,3-35,14-41,24c-7,14-21,19-48,19c-25,0-41,5-44,15c-8,20-72,50-135,64
		C7632,3561,7631,3561,7572,3548z"/>
	<path class="st0" d="M7425,3484c-38-30-160-83-239-104c-76-19-81-19-104-2c-54,38-67,42-107,37c-22-3-78,2-123,10
		c-46,9-93,13-105,9c-12-3-45-24-74-46s-56-37-62-34c-13,8-113-149-171-269c-56-114-70-131-157-174c-35-17-63-33-63-35
		c0-1,18-21,40-44c22-22,40-48,40-57c0-33,31-75,70-95c43-22,65-53,56-77c-17-43,72-102,155-103c77,0,137-30,94-46
		c-24-10-18-27,25-69c27-26,40-48,40-66c0-28,19-39,70-39c14,0,53-10,85-21c53-19,74-21,185-16c147,7,177,14,290,70
		c77,38,92,42,155,41c92-1,182-28,214-65c20-22,34-29,63-29c41,0,58,19,58,66c0,68,66,264,89,264c5,0,17-10,26-22c14-22,17-22,42-8
		c15,9,38,31,50,49c21,30,22,37,9,55c-19,30-77,33-120,7c-47-29-116-28-143,2c-29,32-31,42-48,215c-9,86-21,175-26,197
		c-22,80-164,331-220,388C7488,3503,7455,3507,7425,3484z"/>
	<path class="st0" d="M3805,3319c-114-14-187-31-235-54c-57-29-143-119-159-168c-8-24-23-43-42-52c-51-27-32-49,41-50
		c39,0,47-4,65-33c63-102,57-97,112-97c63,1,99,19,112,56c10,28,63,69,89,69c7,0,19-15,27-33c8-19,21-39,29-46c23-19,59,7,97,69
		c17,28,36,50,42,50c7,0,23-9,37-20s30-20,35-20c15,0,81,56,105,90l21,30l-45-6c-42-6-48-4-80,28c-33,33-56,89-56,136
		c0,13-5,32-10,43C3978,3332,3933,3334,3805,3319z"/>
	<path class="st0" d="M4392,3131c-18-5-49-20-70-34c-28-19-46-24-73-20c-34,5-37,3-44-25c-3-17-17-38-31-46c-13-9-24-25-24-36
		c0-26-40-45-75-36c-15,4-38,18-53,33l-26,26l-27-31c-26-29-49-87-49-124c0-32-25-19-92,47c-74,74-98,82-98,32c0-49-27-67-127-89
		c-48-10-92-23-97-28c-7-7-3-25,12-55c12-25,22-52,22-59c0-8-18-29-40-46s-40-36-40-41s13-30,30-57l29-47l-21-17l-22-16l26-39
		c25-38,79-73,111-73c21,0,38-25,31-44c-13-34,32-14,125,57c52,39,101,76,108,80c19,12,191-72,240-117c42-38,66-94,82-193
		c9-61,27-86,171-242c114-124,234-232,290-261c19-10,62-23,95-30c93-19,128-37,178-90c26-27,59-52,74-56c52-11,68-25,98-82
		c24-46,39-61,80-82c36-18,56-37,74-69c29-52,69-168,82-235c8-45,7-53-17-87c-29-43-53-103-54-137c0-27,37-46,58-29
		c27,22,74,100,90,149c14,44,24,56,62,78c39,23,45,31,48,64c3,35-1,43-58,96l-61,59l16,36c8,20,38,66,66,101c60,75,77,79,155,35
		c48-28,106-84,117-113c3-10,10-8,27,8c21,20,21,23,6,52c-23,45-119,119-270,208c-157,93-213,131-221,152c-3,8,4,25,17,39
		c35,37,13,48-100,48c-94,0-100,1-156,35c-76,45-137,123-176,225c-68,176-98,215-203,266c-45,22-47,22-61,4c-25-34-43-12-50,62
		c-18,180-18,200-7,207c14,9,14,58-1,107c-18,62-4,80,102,124c51,21,99,45,106,53c18,18,18,112,0,156c-12,29-22,36-82,55
		c-65,19-83,29-146,74C4518,3134,4439,3143,4392,3131z"/>
	<path class="st0" d="M5241,3055c-68-22-184-45-310-60c-96-13-113-58-60-163c47-94,96-124,134-82c23,25,46,25,96-1
		c51-25,63-21,63,22c1,29,6,36,39,51c20,10,37,24,38,31c0,6,1,27,2,46c2,30,10,41,60,79C5425,3071,5398,3105,5241,3055z"/>
	<path class="st0" d="M5323,2956c-39-18-57-49-49-87c7-34-1-59-19-59c-7,0-25-20-40-46c-40-68-107-82-147-31c-14,18-19,19-32,8
		c-25-21-19-56,19-102c44-52,51-64,59-110c4-22,23-55,47-83c36-41,40-50,35-81c-6-31-3-39,37-78c65-66,124-96,203-106
		c38-5,70-8,70-7c1,0-39,60-90,132c-96,137-156,246-156,283c0,12,5,31,10,42c10,17,22,19,118,19c178,0,426-27,485-52
		c28-12,52-18,54-13c16,50,40,80,63,80c35,0,39-32,5-45c-22-8-24-13-15-29c5-11,15-23,20-26c15-9,11-67-5-89c-26-34-18-67,28-114
		l42-43l-35-29l-35-28l28-26c23-21,26-29,17-46c-6-12-21-20-35-20c-16,0-33-12-51-35c-18-24-34-35-47-33c-16,2-23-5-29-31
		c-6-21-17-35-30-39c-17-4-19-10-14-45c8-46,73-150,97-155c10-2,36,17,60,44c24,25,54,50,66,55c51,19,169-47,180-102
		c3-17,12-33,20-36s44,8,81,25c49,23,93,34,162,42c113,12,131,26,123,90c-5,37-2,43,41,85c49,49,55,62,31,71s-72,91-85,143
		c-10,41-9,54,4,80c18,34,21,118,6,141c-9,13-14,11-33-12c-13-16-26-28-29-28c-4,0-36,20-71,45c-44,30-68,55-76,77
		c-25,66-43,94-84,124c-30,23-47,45-59,80c-10,29-34,65-58,89c-36,35-46,40-88,39c-60,0-154-21-178-39c-18-13-18-15-1-81
		c15-58,15-70,4-82c-24-24-47,11-47,72c0,51-12,76-36,76c-6,0-14-9-17-20c-12-46-134-12-307,85C5410,2967,5372,2978,5323,2956z"/>
	<path class="st0" d="M5287,2633c-14-14-6-56,22-112c50-98,166-263,225-319c31-30,56-62,56-71c0-33,58-99,131-151c40-27,78-50,84-50
		c9,0,11,13,8,44c-8,72,56,167,101,150c13-5,15,1,13,33c-2,36,0,38,28,41c56,5,59,9,35,46c-14,24-20,48-18,76c1,30-3,45-14,51
		c-34,19-29,109,7,109c16,0,31,42,20,59c-4,7-22,9-44,5c-28-4-49,0-79,15c-53,27-104,37-275,56c-183,20-176,20-188-15
		c-6-16-13-30-15-30c-3,0-18,16-35,35C5319,2639,5301,2647,5287,2633z"/>
	<path class="st0" d="M6656,2329c-18-14-26-30-26-52c0-42,54-135,91-155c47-27,36-92-17-92c-31,0-41-17-48-90c-8-81,4-121,49-171
		c35-39,39-50,35-101c-1-21,5-31,24-39c21-10,42-8,111,9c110,28,148,28,230-3c86-33,174-35,238-7c35,15,51,31,72,70
		c45,82,144,117,215,76c33-20,56-14,71,20c16,34-8,81-41,81c-30,1-30,26,1,65c18,22,43,72,84,168c10,22,29,39,59,54
		c64,31,70,67,12,68c-11,0-65,21-120,48c-93,43-107,47-176,47c-71,0-79-2-165-50l-90-50l-175,1c-260,1-373,24-377,74c0,14-1,31-2,38
		C6710,2356,6686,2353,6656,2329z"/>
	<path class="st0" d="M450,2202c-22-10-36-26-38-39c-5-36-48-63-102-63c-47,0-69-14-83-52c-3-10,7-42,25-75c18-32,37-85,43-118
		l11-60h60c47,0,63-4,81-22c33-33,98-39,153-14s142,28,164,5c9-8,16-26,16-39c0-12,9-33,19-46c22-28,18-44-35-124
		c-32-47-38-66-44-133c-4-48-14-88-25-105s-15-37-12-55c6-31-20-99-46-121c-23-19-21-45,6-89c38-61,39-69,6-131l-31-59l21-47
		c27-60,26-67-3-94c-14-13-32-39-41-58c-15-31-15-36-1-59c9-13,42-37,74-53c71-36,97-64,161-173c51-87,99-135,126-124
		c8,3,21,20,31,38c26,52,53,76,103,92c72,24,223,45,371,52c159,8,183,16,245,89c53,62,108,102,159,116c27,7,37,17,42,37
		c12,48,42,99,100,167c65,77,66,88,14,200l-32,70l97,140c54,77,111,164,127,193c36,62,71,85,215,137c111,40,208,101,248,155
		c35,47,35,150-1,150c-7,0-18-9-24-20c-9-17-21-20-78-20c-40,0-79,6-96,15c-16,9-45,14-65,13c-31-3-36,0-45,27c-6,17-15,33-21,37
		c-5,4-57,8-115,8c-217,0-365,33-439,97c-60,50-111,60-410,73c-239,11-350,23-446,49c-22,6-97,10-166,10c-108,0-134,3-172,20
		C541,2225,496,2226,450,2202z"/>
	<path class="st0" d="M3878,1909c-21-15-28-29-28-54c0-64,22-190,36-204c12-13,17-12,40,10c60,56,95,173,70,233c-14,32-19,36-53,36
		C3921,1929,3894,1921,3878,1909z"/>
	<path class="st0" d="M6049,1898c-42-14-54-55-35-119c20-65,21-248,2-301c-11-30-11-43,0-75c8-21,14-50,14-65c0-19,10-33,33-49
		c44-30,67-60,67-86c0-13,4-23,9-23c16,0,77,78,111,141c17,33,38,63,46,66c22,8,17,27-28,114c-42,79-43,84-43,177c0,70-5,105-17,127
		C6173,1870,6097,1915,6049,1898z"/>
	<path class="st0" d="M6392,1809c-12-12-25-20-28-16c-15,14-62-25-88-73c-33-61-36-104-12-157c20-45,56-70,106-73c66-5,87,0,134,32
		c29,18,69,35,100,39c92,15,124,94,73,183c-33,60-75,79-177,84C6419,1832,6411,1831,6392,1809z"/>
	<path class="st0" d="M342,1758c-18-5-36-16-39-24s2-45,12-81c38-140-7-418-96-585c-23-44-29-68-27-100c2-30,7-42,17-40
		c25,5,77-18,104-46c25-26,27-32,18-78c-16-89-23-218-12-245c7-21,20-29,60-39c86-20,117-17,151,15c24,23,30,37,30,70
		c0,28,10,62,30,98c35,65,37,87,13,128c-17,29-17,31,10,78c36,65,34,90-12,169c-21,37-40,71-40,76c-1,5,20,16,46,25l48,16v55
		c0,36,6,64,18,80c11,16,17,44,17,85c0,59,9,84,61,175c25,44,20,102-12,136c-30,32-95,33-130,3c-21-18-34-20-98-17c-59,3-76,8-90,24
		C399,1763,381,1768,342,1758z"/>
	<path class="st0" d="M7503,1755c-44-19-67-56-58-95c5-21,2-39-9-55c-34-52-9-156,44-185c31-17,58-7,118,44c63,54,98,65,245,74
		l112,8l-65,31c-75,36-96,53-136,108c-37,51-44,56-70,50c-11-2-37,4-57,15C7584,1773,7548,1775,7503,1755z"/>
	<path class="st0" d="M9065,1759c-22-4-75-8-118-8c-169-2-428-100-523-198l-44-47l-88,13c-107,16-285,26-307,18c-37-15,50-87,105-87
		c39,0,19-19-42-39c-82-28-98-38-79-50c20-13-16-17-224-30c-207-12-287-32-335-87c-25-29-30-43-28-72l3-37l78,2c42,2,77,1,77-2
		c0-2-9-19-20-38l-21-35l36-42c19-23,35-45,35-49s-11-22-25-41s-25-35-25-37s12-15,26-28c15-14,22-25,16-25c-17,0-42-30-42-52
		c0-14,12-24,40-35c34-14,40-21,40-45c0-16-6-31-15-34c-24-9-18-24,30-75c24-26,47-58,50-71c6-23,9-24,53-17c76,13,81,11,131-36
		c27-25,58-45,70-45c14,0,28-11,39-31c50-92,100-118,182-93c49,14,110,69,110,99c0,32,24,65,47,65c67,0,261-88,345-156
		c59-49,89-54,168-30c85,26,137,54,189,100c28,25,63,49,77,52c38,10,112-1,133-20c25-23,43-20,86,14c46,37,69,44,95,30
		c28-15,25-39-10-91c-53-79-33-163,26-108c37,34,54,72,54,119c0,23,5,50,10,61c13,23,54,25,90,4c35-20,72-19,169,7l83,22l97-22
		c53-12,106-22,119-22c12,0,71,16,130,35c142,45,189,55,304,65c63,5,107,14,127,26c29,17,32,17,60,1c26-15,32-15,65-2
		c27,11,77,15,205,15c109,0,172,4,176,11c13,20-6,63-42,95c-33,31-35,36-25,59c24,52,10,186-34,313c-16,47-12,62,14,62
		c36,0,62,29,62,70c0,44-18,60-69,60c-54,0-77,16-99,68c-25,58-27,75-10,102s-7,71-81,148c-66,69-88,76-199,62c-94-12-129-24-207-66
		c-106-58-217-77-309-52c-36,9-62,8-145-6c-127-23-188-16-346,35c-66,21-131,39-144,39c-18,0-41,17-78,57c-41,44-56,54-65,45
		c-17-17-69-15-96,4c-13,9-34,33-48,55C9148,1773,9139,1775,9065,1759z"/>
	<path class="st0" d="M6910,1614c-25-8-78-18-119-23c-57-7-78-14-90-30c-12-15-34-23-84-30c-64-9-121-34-147-66c-8-9-30-15-55-15
		c-59,0-75-8-75-36c0-13-13-38-29-57c-16-18-33-48-38-67c-7-24-16-36-34-40c-22-6-24-11-23-62c2-88,58-172,126-188l33-8l-32-7
		c-49-11-57-26-38-71c24-58,37-63,157-64c59,0,131-5,160-11c68-14,223-89,275-134c22-19,43-32,46-29c10,10-12,75-36,107
		c-25,32-69,65-192,143l-60,37l33,9c33,9,33,9,17,34c-9,14-15,35-13,47c3,19,9,22,46,20c35-2,43,1,40,14c-2,9-17,20-35,25
		c-31,8-34,13-48,72c-3,17-15,42-26,57c-10,15-19,37-19,48c0,25,21,77,43,106c15,19,16,19,23-10c10-44,33-65,70-65c61,0,81,14,88,63
		c4,25,16,53,27,62c23,22,180,54,260,55c30,0,79-7,108-16c29-8,69-14,89-12c35,3,37,5,35,38c-1,19-8,39-17,46c-9,6-55,14-103,17
		c-49,4-126,18-172,32C7005,1633,6974,1635,6910,1614z"/>
	<path class="st0" d="M3843,1479c-59-28-63-32-63-64c0-19,7-60,15-92c19-74,19-129-2-205l-17-61l39-34c21-18,45-33,52-33
		c8,0,26,14,40,31c14,16,32,28,39,25c29-11,65,81,79,202c12,107-46,262-98,262C3915,1510,3877,1496,3843,1479z"/>
	<path class="st0" d="M6485,798c-11-6-44-29-73-51l-52-40l60-63c58-60,71-86,50-99c-15-9-12-61,4-74c11-10,20-10,36-1
		c31,17,46,7,75-50c14-27,29-50,33-50c5,0,16,17,26,37l18,38l19-24c11-13,25-21,34-17c24,9,18,71-16,148c-17,38-28,72-25,76
		c3,3,28-5,54-17c56-26,105-25,110,3c3,15,0,18-18,13c-16-4-33,4-63,32c-60,53-105,85-162,113C6527,807,6508,811,6485,798z"/>
	<path class="st0" d="M4720,745c-8-9-26-15-46-13c-19,1-40-4-46-11c-30-30,154-154,277-186c66-17,98-35,120-69c9-13,30-30,46-36
		c26-11,34-10,57,7c34,25,38,51,18,111c-17,52-12,82,28,157c33,62,37,61-149,40c-113-12-138-12-190,0C4758,763,4735,763,4720,745z"
		/>
	<path class="st0" d="M6890,92c0-12,46-27,107-36c23-3,63-17,89-31c83-44,219-25,161,23C7218,72,6890,113,6890,92z"/>
</g>
</svg>
